<?xml version="1.0" standalone="no"?><!DOCTYPE svg PUBLIC "-//W3C//DTD SVG 1.1//EN" "http://www.w3.org/Graphics/SVG/1.1/DTD/svg11.dtd"><svg t="1746895566922" class="icon" viewBox="0 0 1024 1024" version="1.1" xmlns="http://www.w3.org/2000/svg" p-id="16851" xmlns:xlink="http://www.w3.org/1999/xlink" width="200" height="200"><path d="M537.25696 10.808889a35.84 35.84 0 0 0-51.2 0L64.055182 443.392c-13.994667 14.449778-7.964444 26.168889 13.880889 26.168889h157.696c21.617778 0 39.480889 15.587556 39.480889 34.702222v277.162667c0 19.114667 17.635556 34.702222 39.367111 34.702222h394.353778c21.617778 0 39.367111-15.587556 39.367111-34.702222V504.263111c0-19.114667 17.749333-34.588444 39.480889-34.588444h157.696c21.731556 0 27.875556-11.832889 13.880889-26.282667L537.25696 10.808889z m-104.448 943.900444c0 38.343111-35.271111 69.290667-78.848 69.290667-43.576889 0-78.848-30.947556-78.848-69.290667 0-38.343111 35.271111-69.404444 78.848-69.404444 43.576889 0 78.848 31.061333 78.848 69.404444z m315.392 0c0 38.343111-35.271111 69.290667-78.848 69.290667-43.576889 0-78.848-30.947556-78.848-69.290667 0-38.343111 35.271111-69.404444 78.848-69.404444 43.576889 0 78.848 31.061333 78.848 69.404444z m-394.24-69.404444h315.392V1024H353.96096V885.418667z" fill="#ffffff" p-id="16852"></path></svg>